# Blender 4.0.2
# www.blender.org
mtllib HalfCube.mtl
o Cube
v 1.000000 1.000000 -1.000000
v 1.000000 -1.000000 -1.000000
v 1.000000 1.000000 1.000000
v -1.000000 1.000000 -1.000000
v -1.000000 -1.000000 -1.000000
v -1.000000 1.000000 1.000000
v -1.000000 -1.000000 1.000000
vn -0.0000 1.0000 -0.0000
vn -1.0000 -0.0000 -0.0000
vn -0.0000 -0.0000 -1.0000
vt 0.875000 0.500000
vt 0.625000 0.750000
vt 0.625000 0.500000
vt 0.625000 0.000000
vt 0.375000 0.250000
vt 0.375000 0.000000
vt 0.625000 0.250000
vt 0.375000 0.500000
vt 0.875000 0.750000
s 0
usemtl Material
f 4/1/1 3/2/1 1/3/1
f 6/4/2 5/5/2 7/6/2
f 4/7/3 2/8/3 5/5/3
f 4/1/1 6/9/1 3/2/1
f 6/4/2 4/7/2 5/5/2
f 4/7/3 1/3/3 2/8/3
